<?xml version="1.0" standalone="no"?>
<!DOCTYPE svg PUBLIC "-//W3C//DTD SVG 20010904//EN"
 "http://www.w3.org/TR/2001/REC-SVG-20010904/DTD/svg10.dtd">
<svg version="1.0" xmlns="http://www.w3.org/2000/svg"
 width="500.000000pt" height="500.000000pt" viewBox="0 0 500.000000 500.000000"
 preserveAspectRatio="xMidYMid meet">

<g transform="translate(0.000000,500.000000) scale(0.100000,-0.100000)"
fill="#000000" stroke="none">
<path d="M2328 3038 c-82 -45 -148 -84 -148 -87 0 -8 135 -81 150 -81 11 0
258 135 303 165 16 11 11 16 -48 49 -36 20 -76 36 -88 36 -12 -1 -88 -37 -169
-82z"/>
<path d="M2610 2982 c-74 -44 -172 -98 -212 -119 -16 -8 -28 -16 -28 -18 0 -2
29 -20 64 -40 l64 -36 153 86 c83 47 156 85 161 85 4 0 8 3 8 8 0 9 -115 72
-132 72 -7 0 -42 -17 -78 -38z"/>
<path d="M2160 2830 l0 -80 71 -37 c111 -59 109 -57 112 -146 l3 -79 59 -34
c33 -18 63 -34 68 -34 4 0 6 73 5 162 l-3 161 -30 17 c-16 10 -46 26 -65 37
-82 46 -208 113 -214 113 -3 0 -6 -36 -6 -80z"/>
<path d="M2800 2897 c-14 -7 -85 -46 -157 -87 l-133 -73 0 -159 c0 -108 3
-158 11 -158 17 0 293 152 306 170 14 17 19 320 6 320 -5 0 -19 -6 -33 -13z"/>
<path d="M2160 2657 c0 -29 6 -59 13 -68 7 -9 41 -31 75 -48 l63 -32 -3 61 -3
61 -72 39 -73 39 0 -52z"/>
<path d="M1281 1738 l0 -73 51 -32 c46 -30 57 -33 129 -33 l79 0 0 30 0 30
-100 0 -100 0 0 45 0 45 110 0 110 0 0 30 0 30 -140 0 -140 0 1 -72z"/>
<path d="M1703 1795 c-40 -17 -55 -45 -51 -97 4 -52 31 -73 123 -97 85 -21
109 -47 74 -82 -18 -18 -29 -21 -75 -16 -30 3 -66 14 -81 25 l-28 20 -17 -23
c-17 -23 -17 -24 8 -44 32 -25 122 -46 165 -37 81 15 120 65 104 135 -7 33
-50 58 -150 88 -62 19 -79 39 -55 68 15 18 91 20 137 3 29 -10 36 -10 44 2 5
8 8 21 6 29 -6 35 -143 53 -204 26z"/>
<path d="M1987 1804 c-4 -4 -7 -18 -7 -30 0 -21 5 -23 61 -26 l61 -3 1 -145 2
-145 32 -3 32 -3 3 148 3 148 63 3 c62 3 63 3 60 30 l-3 27 -151 3 c-82 1
-153 -1 -157 -4z"/>
<path d="M2442 1789 c-112 -56 -130 -220 -32 -302 51 -43 119 -56 181 -35 81
27 129 91 129 172 0 56 -14 93 -48 130 -55 59 -152 74 -230 35z m174 -73 c33
-33 39 -54 34 -116 -6 -84 -129 -129 -194 -72 -90 82 -41 222 78 222 41 0 53
-5 82 -34z"/>
<path d="M2895 1793 c-46 -24 -66 -45 -86 -88 -35 -75 -20 -153 40 -211 62
-61 153 -67 238 -18 l43 25 -23 23 -22 23 -28 -21 c-33 -24 -101 -28 -139 -8
-36 20 -58 64 -58 116 0 39 5 51 35 81 31 30 42 35 82 35 28 0 58 -8 78 -20
32 -20 32 -20 50 0 15 17 16 22 4 36 -36 43 -155 58 -214 27z"/>
<path d="M3270 1663 c-40 -82 -79 -163 -86 -180 l-14 -33 33 0 c34 0 34 1 101
141 36 78 69 139 73 135 4 -3 21 -37 38 -74 l32 -67 -54 -3 -54 -3 18 -30 c16
-26 22 -29 68 -29 49 0 52 -2 68 -35 14 -30 22 -35 52 -35 l35 0 -24 53 c-13
28 -52 109 -87 180 -61 122 -65 127 -95 127 -31 0 -34 -4 -104 -147z"/>
<path d="M3657 1804 c-4 -4 -7 -85 -7 -181 l0 -173 35 0 35 0 -2 178 -3 177
-25 3 c-14 2 -29 0 -33 -4z"/>
<path d="M1280 1547 l0 -97 145 0 145 0 -2 30 -2 30 -113 0 -113 0 0 38 c0 29
-7 45 -30 67 l-30 29 0 -97z"/>
</g>
</svg>
